<svg xmlns="http://www.w3.org/2000/svg" version="1.1" xmlns:xlink="http://www.w3.org/1999/xlink" width="2000" height="400" viewBox="0 0 2000 400"><svg xml:space="preserve" width="2000" height="400" data-version="2" data-id="lg_ESboimuCJQ4N4k2CdQ" viewBox="0 0 570 114" x="0" y="0">
    <path fill="#FFF" d="M299.66 16.768h31.64v81.1h-31.64v-29.96l-16.86 1.47v28.49h-31.58v-81.1h31.58v29.3l16.86-1.37Z"></path>
    <rect width="80.08" height="81.1" x="-40.04" y="-40.55" fill="none" rx="0" ry="0" transform="matrix(1 0 0 1 291.76 57.818)"></rect>
    <path fill="#FFF" d="m334.64 97.868 40.32-76.99q1.48-2.79 4.57-4.34 3.1-1.55 6.45-1.55 3 0 5.87 1.37t4.44 4.22l43.27 77.29h-41.19l-3.2-8.03h-21.93l-2.75 8.03Zm41.09-24.12h16.4l-7.77-21.94Z"></path>
    <rect width="104.92" height="82.88" x="-52.46" y="-41.44" fill="none" rx="0" ry="0" transform="matrix(1 0 0 1 387.6 56.928)"></rect>
    <path fill="#FFF" d="M442.7 16.768h31.59v56.67h27.27v24.43H442.7Z"></path>
    <rect width="58.86" height="81.1" x="-29.43" y="-40.55" fill="none" rx="0" ry="0" transform="matrix(1 0 0 1 472.63 57.818)"></rect>
    <path fill="#FFF" d="M504.8 16.768h31.59v56.67h27.27v24.43H504.8Z"></path>
    <rect width="58.86" height="81.1" x="-29.43" y="-40.55" fill="none" rx="0" ry="0" transform="matrix(1 0 0 1 534.73 57.818)"></rect>
    <rect width="100" height="50.38" x="-50" y="-25.19" fill="#FFF" rx="7" ry="7" transform="matrix(1.8916 0 0 1.8916 123.638 57.374)"></rect>
    <path fill="#303030" d="M95.706.916 160.45 57.04l-64.743 56.124h-42.81l49.294-42.667H5.339V43.288h96.494L52.818.836z"></path>
    <circle r="7.829" fill="#303030" transform="matrix(1.8916 0 0 1.8916 185.227 57.373)"></circle>
</svg></svg>